Coordinates
nRows=4
nColumns=38

# SIMM Motion File Header:
name Coordinates
datacolumns 38
datarows 4
otherdata 1
range 0.51400000000000001000 0.51700000000000002000

Units are S.I. units (second, meters, Newtons, ...)
Angles are in degrees.

endheader
time	pelvis_tilt	pelvis_list	pelvis_rotation	pelvis_tx	pelvis_ty	pelvis_tz	hip_flexion_r	hip_adduction_r	hip_rotation_r	knee_angle_r	ankle_angle_r	subtalar_angle_r	mtp_angle_r	hip_flexion_l	hip_adduction_l	hip_rotation_l	knee_angle_l	ankle_angle_l	subtalar_angle_l	mtp_angle_l	lumbar_extension	lumbar_bending	lumbar_rotation	arm_flex_r	arm_add_r	arm_rot_r	elbow_flex_r	pro_sup_r	wrist_flex_r	wrist_dev_r	arm_flex_l	arm_add_l	arm_rot_l	elbow_flex_l	pro_sup_l	wrist_flex_l	wrist_dev_l
      0.51400000000000001000	    -13.37966275135333700000	     -0.97721243597433305000	     -5.53374133629161060000	      0.98424327202797379000	      1.04028299453749120000	     -0.34306028754460649000	     32.33816300182672900000	      6.94147865118179740000	      6.29676954790130950000	     -9.99388447930705400000	      4.91205426941581270000	      0.00000000000000000000	      0.00000000000000000000	     -0.31927981767753566000	      4.52564444503246310000	      1.14854975756897090000	    -46.44895851840193800000	    -15.65940813453779300000	      0.00000000000000000000	      0.00000000000000000000	      3.83867175348533120000	      4.02413377776925520000	     -3.73796862945064890000	    -46.97886247594215100000	    -18.12700056571202000000	    -16.11684888571226500000	    110.26636270510132000000	    107.89458625908958000000	      0.00000000000000000000	      0.00000000000000000000	    -32.63426381129895800000	    -14.98813739163330400000	     -6.39653156547905690000	    130.46216893408334000000	     99.62131244905280900000	      0.00000000000000000000	      0.00000000000000000000
      0.51500000000000001000	    -13.34558884181382900000	     -1.00198050552886180000	     -5.53533792537000570000	      0.98419595422069106000	      1.03978253401739410000	     -0.34308747337435330000	     32.29533437502954000000	      6.98658645853171300000	      6.23461749665596440000	    -10.07349534700996300000	      4.89235956062799280000	     -0.00000000000000000104	     -0.00000000000000000058	     -0.14258950715653371000	      4.47800575403974670000	      1.10016979054952200000	    -47.03250304286033400000	    -15.53792093836932500000	      0.00000000000000000077	     -0.00000000000000000060	      3.78073379996846940000	      4.06682296157514500000	     -3.69111157808866960000	    -46.89572954600765100000	    -18.15373867159295400000	    -16.09833983088746500000	    110.27241266255862000000	    107.87926378984751000000	      0.00000000000000000002	      0.00000000000000000026	    -32.62311617899911200000	    -14.99018240151776600000	     -6.36120362274434030000	    130.32836401391026000000	     99.71484852730756600000	      0.00000000000000000012	      0.00000000000000000122
      0.51600000000000001000	    -13.31281059643275300000	     -1.02636313208870210000	     -5.53569746744385420000	      0.98414589639118699000	      1.03927085633086720000	     -0.34311584847569698000	     32.25510704385661100000	      7.03056343698056010000	      6.16941612516463330000	    -10.16119156337496500000	      4.86942787322836870000	     -0.00000000000000000467	     -0.00000000000000000071	      0.03794052804651939400	      4.42895647760516020000	      1.04974250029071880000	    -47.61776526101706300000	    -15.41952359129944100000	      0.00000000000000000290	     -0.00000000000000000281	      3.72431663963813260000	      4.10890412363360460000	     -3.64530384572466870000	    -46.81092145370659800000	    -18.18164716306772300000	    -16.07844385020602800000	    110.27729823700730000000	    107.86337090113997000000	     -0.00000000000000000006	      0.00000000000000000143	    -32.61241082717884200000	    -14.99179827163355600000	     -6.32671101434355880000	    130.19339021490049000000	     99.80993768579813300000	      0.00000000000000000076	      0.00000000000000000362
      0.51700000000000002000	    -13.28143984809084800000	     -1.05036488039173800000	     -5.53491605299880620000	      0.98409298642942444000	      1.03874792327950050000	     -0.34314535042759753000	     32.21767336224132100000	      7.07339927556933910000	      6.10054270187118690000	    -10.25705988668089000000	      4.83914946837358160000	     -0.00000000000000000921	     -0.00000000000000000093	      0.22239453310367618000	      4.37847845245843810000	      0.99731519277030445000	    -48.20462160885421800000	    -15.30411124146671400000	      0.00000000000000000551	     -0.00000000000000000530	      3.66954039483824030000	      4.15041657812702080000	     -3.60044500336458250000	    -46.72444517175120600000	    -18.21074169280434800000	    -16.05719437448546600000	    110.28100209083254000000	    107.84691910780742000000	     -0.00000000000000000037	      0.00000000000000000286	    -32.60214428642481000000	    -14.99296632189590800000	     -6.29300359286646140000	    130.05723198943960000000	     99.90649794944437200000	      0.00000000000000000239	      0.00000000000000000553
